<mxfile host="65bd71144e">
    <diagram id="p3xdA_AxEr52JGi1xQjq" name="Page-1">
        <mxGraphModel dx="1064" dy="571" grid="1" gridSize="10" guides="1" tooltips="1" connect="1" arrows="1" fold="1" page="1" pageScale="1" pageWidth="850" pageHeight="1100" math="0" shadow="0">
            <root>
                <mxCell id="0"/>
                <mxCell id="1" parent="0"/>
                <mxCell id="2" value="&lt;ul&gt;&lt;li&gt;traversal&lt;/li&gt;&lt;li&gt;insertion&lt;/li&gt;&lt;li&gt;deletion&lt;/li&gt;&lt;li&gt;searching&lt;/li&gt;&lt;li&gt;sorting&lt;/li&gt;&lt;li&gt;merging&lt;/li&gt;&lt;/ul&gt;" style="text;strokeColor=none;fillColor=none;html=1;whiteSpace=wrap;verticalAlign=middle;overflow=hidden;" vertex="1" parent="1">
                    <mxGeometry x="10" y="10" width="100" height="170" as="geometry"/>
                </mxCell>
                <mxCell id="4" value="&lt;h1&gt;Traversing&lt;/h1&gt;&lt;p&gt;Reading all values&lt;/p&gt;" style="text;html=1;strokeColor=none;fillColor=none;spacing=5;spacingTop=-20;whiteSpace=wrap;overflow=hidden;rounded=0;" vertex="1" parent="1">
                    <mxGeometry x="235" y="40" width="190" height="120" as="geometry"/>
                </mxCell>
            </root>
        </mxGraphModel>
    </diagram>
</mxfile>